<?xml version="1.0" standalone="no"?>
<!DOCTYPE svg PUBLIC "-//W3C//DTD SVG 20010904//EN"
 "http://www.w3.org/TR/2001/REC-SVG-20010904/DTD/svg10.dtd">
<svg version="1.0" xmlns="http://www.w3.org/2000/svg"
 width="407.000000pt" height="326.000000pt" viewBox="0 0 407.000000 326.000000"
 preserveAspectRatio="xMidYMid meet">

<g transform="translate(0.000000,326.000000) scale(0.100000,-0.100000)"
fill="#000000" stroke="none">
<path d="M120 3138 c122 -305 116 -293 147 -296 30 -3 37 11 148 281 l15 37
-32 0 c-33 -1 -33 -2 -78 -115 -38 -100 -60 -138 -60 -106 0 5 -18 57 -41 115
-41 106 -41 106 -75 106 -31 0 -33 -2 -24 -22z"/>
<path d="M641 3138 c-5 -13 -35 -81 -65 -153 -31 -71 -56 -133 -56 -137 0 -4
13 -8 29 -8 25 0 31 6 41 35 l12 35 77 0 77 0 13 -35 c10 -29 17 -35 42 -35
37 0 38 -7 -41 180 -55 129 -59 135 -89 138 -25 3 -33 -1 -40 -20z m68 -114
c11 -31 21 -58 21 -60 0 -2 -22 -4 -50 -4 -27 0 -50 2 -50 5 0 15 43 115 49
115 5 0 18 -25 30 -56z"/>
<path d="M990 3001 l0 -161 83 0 c139 0 211 55 211 159 -1 56 -23 102 -66 133
-28 19 -48 24 -130 26 l-98 4 0 -161z m163 100 c45 -17 67 -51 67 -102 0 -72
-47 -109 -141 -109 l-29 0 0 110 0 110 39 0 c22 0 51 -4 64 -9z"/>
<path d="M1430 3135 c0 -25 1 -25 80 -25 44 0 80 -3 80 -7 -1 -5 -39 -55 -85
-113 -49 -61 -85 -114 -85 -127 0 -23 2 -23 129 -23 l129 0 4 25 c5 24 5 24
-88 27 l-93 3 89 113 c50 62 90 122 90 133 0 18 -8 19 -125 19 l-125 0 0 -25z"/>
<path d="M1840 3000 l0 -160 30 0 30 0 0 160 0 160 -30 0 -30 0 0 -160z"/>
<path d="M2080 2999 l0 -160 28 3 c27 3 27 4 29 83 1 44 2 89 3 100 1 11 20
-18 46 -67 24 -49 48 -88 53 -88 14 0 36 32 72 103 l34 69 3 -101 3 -101 29 0
30 0 0 160 0 160 -33 0 c-31 0 -34 -4 -82 -100 l-50 -101 -53 101 c-49 92 -56
100 -83 100 l-29 0 0 -161z"/>
<path d="M2687 2819 c-69 -9 -86 -13 -439 -95 l-207 -47 -65 -136 c-35 -75
-186 -388 -335 -695 -149 -307 -271 -563 -271 -567 0 -34 -32 22 -140 244 -67
138 -235 483 -373 765 l-250 512 -248 0 c-137 0 -249 -2 -249 -5 0 -2 254
-513 565 -1135 l565 -1130 118 0 117 0 310 621 c171 341 313 622 317 625 3 2
25 -11 47 -30 121 -101 322 -179 776 -300 265 -71 367 -111 436 -173 96 -87
87 -235 -18 -305 -209 -138 -795 -84 -1218 112 l-86 39 -16 -37 c-144 -341
-142 -336 -125 -351 48 -39 276 -126 432 -166 193 -49 325 -67 535 -72 313 -9
499 22 680 111 214 106 321 273 332 516 11 239 -67 405 -247 525 -125 83 -292
143 -675 244 -326 85 -423 122 -496 188 -93 84 -72 209 45 278 86 50 183 68
386 69 240 1 463 -32 690 -103 52 -17 98 -27 101 -23 10 12 132 372 127 377
-9 9 -187 64 -288 88 -185 45 -301 59 -540 62 -124 2 -255 0 -293 -6z"/>
<path d="M1269 371 c-34 -34 -38 -77 -11 -110 9 -12 46 -32 81 -44 74 -25 97
-50 67 -73 -27 -19 -65 -18 -110 6 -37 18 -40 18 -52 2 -20 -26 -18 -30 28
-53 32 -16 54 -20 99 -17 68 5 96 25 105 75 10 51 -18 82 -96 108 -71 22 -92
44 -70 70 14 17 66 17 117 0 16 -5 24 -2 33 14 10 19 7 23 -24 36 -20 8 -58
15 -86 15 -44 0 -56 -5 -81 -29z"/>
<path d="M1640 240 l0 -160 30 0 30 0 0 160 0 160 -30 0 -30 0 0 -160z"/>
<path d="M1880 240 l0 -160 24 0 c19 0 24 6 29 36 3 20 3 65 0 100 -3 35 -3
64 0 64 3 0 27 -38 53 -85 25 -47 51 -84 58 -82 6 1 32 43 58 92 l47 90 1
-108 0 -108 28 3 27 3 3 158 3 157 -34 0 c-32 0 -35 -4 -77 -91 -25 -50 -48
-93 -52 -95 -3 -2 -30 39 -58 91 -47 87 -54 95 -81 95 l-29 0 0 -160z"/>
<path d="M2417 246 c-37 -84 -67 -156 -67 -160 0 -3 13 -6 29 -6 25 0 31 6 41
35 l12 35 78 0 78 0 12 -35 c10 -31 16 -35 45 -35 l34 0 -35 83 c-20 45 -50
117 -67 159 -30 73 -34 78 -62 78 -30 0 -32 -4 -98 -154z m143 -33 c0 -9 -16
-13 -50 -13 -27 0 -50 2 -50 4 0 3 12 32 27 66 l26 61 23 -53 c13 -29 23 -59
24 -65z"/>
<path d="M2820 240 l0 -160 30 0 29 0 3 102 3 102 78 -102 c61 -80 83 -102
103 -102 l24 0 0 160 0 160 -30 0 -29 0 -3 -102 -3 -101 -79 101 c-60 78 -84
102 -102 102 l-24 0 0 -160z"/>
<path d="M3300 249 c-36 -84 -66 -156 -68 -160 -2 -5 10 -9 27 -9 26 0 33 6
45 35 l15 35 75 0 74 0 12 -35 c10 -31 16 -35 45 -35 l34 0 -29 67 c-108 256
-104 248 -136 251 -29 3 -30 1 -94 -149z m140 -36 c0 -9 -17 -13 -50 -13 -55
0 -54 -7 -14 85 l17 40 23 -50 c13 -27 24 -56 24 -62z"/>
<path d="M3690 289 c0 -127 14 -170 62 -195 57 -30 144 -17 183 26 17 19 20
39 23 151 l4 129 -31 0 -31 0 0 -112 c0 -120 -2 -128 -37 -147 -34 -17 -62
-13 -88 14 -24 23 -25 31 -25 135 l0 110 -30 0 -30 0 0 -111z"/>
</g>
</svg>
