<?xml version="1.0" encoding="utf-8"?>
<svg xmlns="http://www.w3.org/2000/svg">
<symbol id="icon-logo" viewBox="0 0 407 326">
<path d="M12 12.2c12.2 30.5 11.6 29.3 14.7 29.6 3 .3 3.7-1.1 14.8-28.1L43 10h-3.2c-3.3.1-3.3.2-7.8 11.5-3.8 10-6 13.8-6 10.6 0-.5-1.8-5.7-4.1-11.5C17.8 10 17.8 10 14.4 10c-3.1 0-3.3.2-2.4 2.2zM64.1 12.2c-.5 1.3-3.5 8.1-6.5 15.3-3.1 7.1-5.6 13.3-5.6 13.7 0 .4 1.3.8 2.9.8 2.5 0 3.1-.6 4.1-3.5l1.2-3.5h15.4l1.3 3.5c1 2.9 1.7 3.5 4.2 3.5 3.7 0 3.8.7-4.1-18-5.5-12.9-5.9-13.5-8.9-13.8-2.5-.3-3.3.1-4 2zm6.8 11.4c1.1 3.1 2.1 5.8 2.1 6 0 .2-2.2.4-5 .4-2.7 0-5-.2-5-.5C63 28 67.3 18 67.9 18c.5 0 1.8 2.5 3 5.6zM99 25.9V42h8.3c13.9 0 21.1-5.5 21.1-15.9-.1-5.6-2.3-10.2-6.6-13.3-2.8-1.9-4.8-2.4-13-2.6L99 9.8v16.1zm16.3-10c4.5 1.7 6.7 5.1 6.7 10.2 0 7.2-4.7 10.9-14.1 10.9H105V15h3.9c2.2 0 5.1.4 6.4.9zM143 12.5c0 2.5.1 2.5 8 2.5 4.4 0 8 .3 8 .7-.1.5-3.9 5.5-8.5 11.3-4.9 6.1-8.5 11.4-8.5 12.7 0 2.3.2 2.3 12.9 2.3h12.9l.4-2.5c.5-2.4.5-2.4-8.8-2.7l-9.3-.3 8.9-11.3c5-6.2 9-12.2 9-13.3 0-1.8-.8-1.9-12.5-1.9H143v2.5zM184 26v16h6V10h-6v16zM208 26.1v16l2.8-.3c2.7-.3 2.7-.4 2.9-8.3.1-4.4.2-8.9.3-10 .1-1.1 2 1.8 4.6 6.7 2.4 4.9 4.8 8.8 5.3 8.8 1.4 0 3.6-3.2 7.2-10.3l3.4-6.9.3 10.1.3 10.1h5.9V10h-3.3c-3.1 0-3.4.4-8.2 10l-5 10.1-5.3-10.1c-4.9-9.2-5.6-10-8.3-10H208v16.1zM268.7 44.1c-6.9.9-8.6 1.3-43.9 9.5l-20.7 4.7-6.5 13.6c-3.5 7.5-18.6 38.8-33.5 69.5-14.9 30.7-27.1 56.3-27.1 56.7 0 3.4-3.2-2.2-14-24.4-6.7-13.8-23.5-48.3-37.3-76.5L60.7 46H35.9c-13.7 0-24.9.2-24.9.5 0 .2 25.4 51.3 56.5 113.5L124 273h23.5l31-62.1c17.1-34.1 31.3-62.2 31.7-62.5.3-.2 2.5 1.1 4.7 3 12.1 10.1 32.2 17.9 77.6 30 26.5 7.1 36.7 11.1 43.6 17.3 9.6 8.7 8.7 23.5-1.8 30.5-20.9 13.8-79.5 8.4-121.8-11.2l-8.6-3.9-1.6 3.7c-14.4 34.1-14.2 33.6-12.5 35.1 4.8 3.9 27.6 12.6 43.2 16.6 19.3 4.9 32.5 6.7 53.5 7.2 31.3.9 49.9-2.2 68-11.1 21.4-10.6 32.1-27.3 33.2-51.6 1.1-23.9-6.7-40.5-24.7-52.5-12.5-8.3-29.2-14.3-67.5-24.4-32.6-8.5-42.3-12.2-49.6-18.8-9.3-8.4-7.2-20.9 4.5-27.8 8.6-5 18.3-6.8 38.6-6.9 24-.1 46.3 3.2 69 10.3 5.2 1.7 9.8 2.7 10.1 2.3 1-1.2 13.2-37.2 12.7-37.7-.9-.9-18.7-6.4-28.8-8.8-18.5-4.5-30.1-5.9-54-6.2-12.4-.2-25.5 0-29.3.6zM126.9 288.9c-3.4 3.4-3.8 7.7-1.1 11 .9 1.2 4.6 3.2 8.1 4.4 7.4 2.5 9.7 5 6.7 7.3-2.7 1.9-6.5 1.8-11-.6-3.7-1.8-4-1.8-5.2-.2-2 2.6-1.8 3 2.8 5.3 3.2 1.6 5.4 2 9.9 1.7 6.8-.5 9.6-2.5 10.5-7.5 1-5.1-1.8-8.2-9.6-10.8-7.1-2.2-9.2-4.4-7-7 1.4-1.7 6.6-1.7 11.7 0 1.6.5 2.4.2 3.3-1.4 1-1.9.7-2.3-2.4-3.6-2-.8-5.8-1.5-8.6-1.5-4.4 0-5.6.5-8.1 2.9zM164 302v16h6v-32h-6v16zM188 302v16h2.4c1.9 0 2.4-.6 2.9-3.6.3-2 .3-6.5 0-10s-.3-6.4 0-6.4 2.7 3.8 5.3 8.5c2.5 4.7 5.1 8.4 5.8 8.2.6-.1 3.2-4.3 5.8-9.2l4.7-9 .1 10.8v10.8l2.8-.3 2.7-.3.3-15.8.3-15.7h-3.4c-3.2 0-3.5.4-7.7 9.1-2.5 5-4.8 9.3-5.2 9.5-.3.2-3-3.9-5.8-9.1-4.7-8.7-5.4-9.5-8.1-9.5H188v16zM241.7 301.4c-3.7 8.4-6.7 15.6-6.7 16 0 .3 1.3.6 2.9.6 2.5 0 3.1-.6 4.1-3.5l1.2-3.5h15.6l1.2 3.5c1 3.1 1.6 3.5 4.5 3.5h3.4l-3.5-8.3c-2-4.5-5-11.7-6.7-15.9-3-7.3-3.4-7.8-6.2-7.8-3 0-3.2.4-9.8 15.4zm14.3 3.3c0 .9-1.6 1.3-5 1.3-2.7 0-5-.2-5-.4 0-.3 1.2-3.2 2.7-6.6l2.6-6.1 2.3 5.3c1.3 2.9 2.3 5.9 2.4 6.5zM282 302v16h5.9l.3-10.2.3-10.2 7.8 10.2c6.1 8 8.3 10.2 10.3 10.2h2.4v-32h-5.9l-.3 10.2-.3 10.1-7.9-10.1c-6-7.8-8.4-10.2-10.2-10.2H282v16zM330 301.1c-3.6 8.4-6.6 15.6-6.8 16-.2.5 1 .9 2.7.9 2.6 0 3.3-.6 4.5-3.5l1.5-3.5h14.9l1.2 3.5c1 3.1 1.6 3.5 4.5 3.5h3.4l-2.9-6.7c-10.8-25.6-10.4-24.8-13.6-25.1-2.9-.3-3-.1-9.4 14.9zm14 3.6c0 .9-1.7 1.3-5 1.3-5.5 0-5.4.7-1.4-8.5l1.7-4 2.3 5c1.3 2.7 2.4 5.6 2.4 6.2zM369 297.1c0 12.7 1.4 17 6.2 19.5 5.7 3 14.4 1.7 18.3-2.6 1.7-1.9 2-3.9 2.3-15.1l.4-12.9H390v11.2c0 12-.2 12.8-3.7 14.7-3.4 1.7-6.2 1.3-8.8-1.4-2.4-2.3-2.5-3.1-2.5-13.5v-11h-6v11.1z"/></path>
</symbol>

<symbol id="icon-close" viewBox="0 0 32 32">
<path fill="none" stroke="#fbfbfb" style="stroke: var(--color1, #fbfbfb)" stroke-linejoin="round" stroke-linecap="round" stroke-miterlimit="4" stroke-width="3.2" d="M24 8l-16 16"></path>
<path fill="none" stroke="#fbfbfb" style="stroke: var(--color1, #fbfbfb)" stroke-linejoin="round" stroke-linecap="round" stroke-miterlimit="4" stroke-width="3.2" d="M8 8l16 16"></path>
</symbol>

<symbol id="icon-burger" viewBox="0 0 32 32">
<path fill="none" stroke="#fbfbfb" style="stroke: var(--color1, #fbfbfb)" stroke-linejoin="round" stroke-linecap="round" stroke-miterlimit="4" stroke-width="3.2" d="M5.333 8h21.333M5.333 16h10.667M5.333 24h21.333"></path>
</symbol>
</svg>
