<svg aria-hidden="true" style="position: absolute; width: 0; height: 0; overflow: hidden;" version="1.1" xmlns="http://www.w3.org/2000/svg" xmlns:xlink="http://www.w3.org/1999/xlink">
<defs>
<symbol id="icon-logo" viewBox="0 0 40 32">
<path d="M1.178 1.198c1.198 2.994 1.139 2.876 1.443 2.906 0.294 0.029 0.363-0.108 1.453-2.758l0.147-0.363h-0.314c-0.324 0.010-0.324 0.020-0.766 1.129-0.373 0.982-0.589 1.355-0.589 1.040 0-0.049-0.177-0.559-0.402-1.129-0.402-1.040-0.402-1.040-0.736-1.040-0.304 0-0.324 0.020-0.236 0.216z"></path>
<path d="M6.292 1.198c-0.049 0.128-0.344 0.795-0.638 1.502-0.304 0.697-0.55 1.306-0.55 1.345s0.128 0.079 0.285 0.079c0.245 0 0.304-0.059 0.402-0.344l0.118-0.344h1.512l0.128 0.344c0.098 0.285 0.167 0.344 0.412 0.344 0.363 0 0.373 0.069-0.402-1.767-0.54-1.266-0.579-1.325-0.874-1.355-0.245-0.029-0.324 0.010-0.393 0.196zM6.96 2.317c0.108 0.304 0.206 0.569 0.206 0.589s-0.216 0.039-0.491 0.039c-0.265 0-0.491-0.020-0.491-0.049 0-0.147 0.422-1.129 0.481-1.129 0.049 0 0.177 0.245 0.294 0.55z"></path>
<path d="M9.718 2.542v1.58h0.815c1.364 0 2.071-0.54 2.071-1.561-0.010-0.55-0.226-1.001-0.648-1.306-0.275-0.187-0.471-0.236-1.276-0.255l-0.962-0.039v1.58zM11.318 1.561c0.442 0.167 0.658 0.501 0.658 1.001 0 0.707-0.461 1.070-1.384 1.070h-0.285v-2.159h0.383c0.216 0 0.501 0.039 0.628 0.088z"></path>
<path d="M14.037 1.227c0 0.245 0.010 0.245 0.785 0.245 0.432 0 0.785 0.029 0.785 0.069-0.010 0.049-0.383 0.54-0.834 1.109-0.481 0.599-0.834 1.119-0.834 1.247 0 0.226 0.020 0.226 1.266 0.226h1.266l0.039-0.245c0.049-0.236 0.049-0.236-0.864-0.265l-0.913-0.029 0.874-1.109c0.491-0.609 0.883-1.198 0.883-1.306 0-0.177-0.079-0.186-1.227-0.186h-1.227v0.245z"></path>
<path d="M18.061 2.552v1.571h0.589v-3.141h-0.589v1.571z"></path>
<path d="M20.417 2.562v1.571l0.275-0.029c0.265-0.029 0.265-0.039 0.285-0.815 0.010-0.432 0.020-0.874 0.029-0.982s0.196 0.177 0.452 0.658c0.236 0.481 0.471 0.864 0.52 0.864 0.137 0 0.353-0.314 0.707-1.011l0.334-0.677 0.059 1.983h0.579v-3.141h-0.324c-0.304 0-0.334 0.039-0.805 0.982l-0.491 0.991-0.52-0.991c-0.481-0.903-0.55-0.982-0.815-0.982h-0.285v1.58z"></path>
<path d="M26.375 4.329c-0.677 0.088-0.844 0.128-4.309 0.933l-2.032 0.461-0.638 1.335c-0.344 0.736-1.826 3.809-3.288 6.822s-2.66 5.526-2.66 5.566c0 0.334-0.314-0.216-1.374-2.395-0.658-1.355-2.307-4.741-3.661-7.509l-2.454-5.026h-2.434c-1.345 0-2.444 0.020-2.444 0.049 0 0.020 2.493 5.036 5.546 11.141l5.546 11.092h2.307l3.043-6.096c1.679-3.347 3.072-6.106 3.112-6.135 0.029-0.020 0.245 0.108 0.461 0.294 1.188 0.991 3.161 1.757 7.617 2.945 2.601 0.697 3.602 1.090 4.28 1.698 0.942 0.854 0.854 2.307-0.177 2.994-2.052 1.355-7.804 0.825-11.956-1.099l-0.844-0.383-0.157 0.363c-1.413 3.347-1.394 3.298-1.227 3.445 0.471 0.383 2.709 1.237 4.241 1.629 1.894 0.481 3.19 0.658 5.252 0.707 3.072 0.088 4.898-0.216 6.675-1.090 2.101-1.041 3.151-2.68 3.259-5.065 0.108-2.346-0.658-3.975-2.425-5.153-1.227-0.815-2.866-1.404-6.626-2.395-3.2-0.834-4.152-1.198-4.869-1.845-0.913-0.825-0.707-2.052 0.442-2.729 0.844-0.491 1.796-0.668 3.789-0.677 2.356-0.010 4.545 0.314 6.773 1.011 0.51 0.167 0.962 0.265 0.991 0.226 0.098-0.118 1.296-3.652 1.247-3.701-0.088-0.088-1.836-0.628-2.827-0.864-1.816-0.442-2.955-0.579-5.301-0.609-1.217-0.020-2.503 0-2.876 0.059z"></path>
<path d="M12.456 28.358c-0.334 0.334-0.373 0.756-0.108 1.080 0.088 0.118 0.452 0.314 0.795 0.432 0.726 0.245 0.952 0.491 0.658 0.717-0.265 0.186-0.638 0.177-1.080-0.059-0.363-0.177-0.393-0.177-0.51-0.020-0.196 0.255-0.177 0.294 0.275 0.52 0.314 0.157 0.53 0.196 0.972 0.167 0.668-0.049 0.942-0.245 1.031-0.736 0.098-0.501-0.177-0.805-0.942-1.060-0.697-0.216-0.903-0.432-0.687-0.687 0.137-0.167 0.648-0.167 1.148 0 0.157 0.049 0.236 0.020 0.324-0.137 0.098-0.186 0.069-0.226-0.236-0.353-0.196-0.079-0.569-0.147-0.844-0.147-0.432 0-0.55 0.049-0.795 0.285z"></path>
<path d="M16.098 29.644v1.571h0.589v-3.141h-0.589v1.571z"></path>
<path d="M18.454 29.644v1.571h0.236c0.186 0 0.236-0.059 0.285-0.353 0.029-0.196 0.029-0.638 0-0.982s-0.029-0.628 0-0.628c0.029 0 0.265 0.373 0.52 0.834 0.245 0.461 0.501 0.825 0.569 0.805 0.059-0.010 0.314-0.422 0.569-0.903l0.461-0.883 0.010 1.060v1.060l0.275-0.029 0.265-0.029 0.029-1.551 0.029-1.541h-0.334c-0.314 0-0.344 0.039-0.756 0.893-0.245 0.491-0.471 0.913-0.51 0.933-0.029 0.020-0.294-0.383-0.569-0.893-0.461-0.854-0.53-0.933-0.795-0.933h-0.285v1.571z"></path>
<path d="M23.725 29.585c-0.363 0.825-0.658 1.531-0.658 1.571 0 0.029 0.128 0.059 0.285 0.059 0.245 0 0.304-0.059 0.402-0.344l0.118-0.344h1.531l0.118 0.344c0.098 0.304 0.157 0.344 0.442 0.344h0.334l-0.344-0.815c-0.196-0.442-0.491-1.148-0.658-1.561-0.294-0.717-0.334-0.766-0.609-0.766-0.294 0-0.314 0.039-0.962 1.512zM25.129 29.909c0 0.088-0.157 0.128-0.491 0.128-0.265 0-0.491-0.020-0.491-0.039 0-0.029 0.118-0.314 0.265-0.648l0.255-0.599 0.226 0.52c0.128 0.285 0.226 0.579 0.236 0.638z"></path>
<path d="M27.681 29.644v1.571h0.579l0.059-2.002 0.766 1.001c0.599 0.785 0.815 1.001 1.011 1.001h0.236v-3.141h-0.579l-0.029 1.001-0.029 0.991-0.775-0.991c-0.589-0.766-0.825-1.001-1.001-1.001h-0.236v1.571z"></path>
<path d="M32.393 29.556c-0.353 0.825-0.648 1.531-0.668 1.571-0.020 0.049 0.098 0.088 0.265 0.088 0.255 0 0.324-0.059 0.442-0.344l0.147-0.344h1.463l0.118 0.344c0.098 0.304 0.157 0.344 0.442 0.344h0.334l-0.285-0.658c-1.060-2.513-1.021-2.434-1.335-2.464-0.285-0.029-0.294-0.010-0.923 1.463zM33.767 29.909c0 0.088-0.167 0.128-0.491 0.128-0.54 0-0.53 0.069-0.137-0.834l0.167-0.393 0.226 0.491c0.128 0.265 0.236 0.55 0.236 0.609z"></path>
<path d="M36.221 29.163c0 1.247 0.137 1.669 0.609 1.914 0.559 0.294 1.413 0.167 1.796-0.255 0.167-0.186 0.196-0.383 0.226-1.482l0.039-1.266h-0.609v1.099c0 1.178-0.020 1.256-0.363 1.443-0.334 0.167-0.609 0.128-0.864-0.137-0.236-0.226-0.245-0.304-0.245-1.325v-1.080h-0.589v1.090z"></path>
</symbol>
<symbol id="icon-burger" viewBox="0 0 44 32">
<path d="M0 6h28v6h-28v-6zM0 14h28v6h-28v-6zM0 22h28v6h-28v-6z"></path>
<path d="M31 20l6-6 6 6z"></path>
</symbol>
<symbol id="icon-close" viewBox="0 0 32 32">
<path d="M31.708 25.708c-0-0-0-0-0-0l-9.708-9.708 9.708-9.708c0-0 0-0 0-0 0.105-0.105 0.18-0.227 0.229-0.357 0.133-0.356 0.057-0.771-0.229-1.057l-4.586-4.586c-0.286-0.286-0.702-0.361-1.057-0.229-0.13 0.048-0.252 0.124-0.357 0.228 0 0-0 0-0 0l-9.708 9.708-9.708-9.708c-0-0-0-0-0-0-0.105-0.104-0.227-0.18-0.357-0.228-0.356-0.133-0.771-0.057-1.057 0.229l-4.586 4.586c-0.286 0.286-0.361 0.702-0.229 1.057 0.049 0.13 0.124 0.252 0.229 0.357 0 0 0 0 0 0l9.708 9.708-9.708 9.708c-0 0-0 0-0 0-0.104 0.105-0.18 0.227-0.229 0.357-0.133 0.355-0.057 0.771 0.229 1.057l4.586 4.586c0.286 0.286 0.702 0.361 1.057 0.229 0.13-0.049 0.252-0.124 0.357-0.229 0-0 0-0 0-0l9.708-9.708 9.708 9.708c0 0 0 0 0 0 0.105 0.105 0.227 0.18 0.357 0.229 0.356 0.133 0.771 0.057 1.057-0.229l4.586-4.586c0.286-0.286 0.362-0.702 0.229-1.057-0.049-0.13-0.124-0.252-0.229-0.357z"></path>
</symbol>
<symbol id="icon-circle-right" viewBox="0 0 32 32">
<path d="M16 0c-8.837 0-16 7.163-16 16s7.163 16 16 16 16-7.163 16-16-7.163-16-16-16zM16 29c-7.18 0-13-5.82-13-13s5.82-13 13-13 13 5.82 13 13-5.82 13-13 13z"></path>
<path d="M11.086 22.086l2.829 2.829 8.914-8.914-8.914-8.914-2.828 2.828 6.086 6.086z"></path>
</symbol>
<symbol id="icon-circle-left" viewBox="0 0 32 32">
<path d="M16 32c8.837 0 16-7.163 16-16s-7.163-16-16-16-16 7.163-16 16 7.163 16 16 16zM16 3c7.18 0 13 5.82 13 13s-5.82 13-13 13-13-5.82-13-13 5.82-13 13-13z"></path>
<path d="M20.914 9.914l-2.829-2.829-8.914 8.914 8.914 8.914 2.828-2.828-6.086-6.086z"></path>
</symbol>
<symbol id="icon-telegram" viewBox="0 0 32 32">
<path d="M16 0c-8.838 0-16 7.162-16 16s7.162 16 16 16 16-7.163 16-16-7.163-16-16-16zM23.863 10.969l-2.625 12.369c-0.181 0.881-0.712 1.087-1.45 0.681l-4-2.956-1.919 1.869c-0.225 0.219-0.4 0.4-0.8 0.4-0.519 0-0.431-0.194-0.606-0.688l-1.363-4.475-3.956-1.231c-0.856-0.262-0.862-0.85 0.194-1.269l15.412-5.95c0.7-0.319 1.381 0.169 1.113 1.25z"></path>
</symbol>
<symbol id="icon-github" viewBox="0 0 32 32">
<path d="M16 0.395c-8.836 0-16 7.163-16 16 0 7.069 4.585 13.067 10.942 15.182 0.8 0.148 1.094-0.347 1.094-0.77 0-0.381-0.015-1.642-0.022-2.979-4.452 0.968-5.391-1.888-5.391-1.888-0.728-1.849-1.776-2.341-1.776-2.341-1.452-0.993 0.11-0.973 0.11-0.973 1.606 0.113 2.452 1.649 2.452 1.649 1.427 2.446 3.743 1.739 4.656 1.33 0.143-1.034 0.558-1.74 1.016-2.14-3.554-0.404-7.29-1.777-7.29-7.907 0-1.747 0.625-3.174 1.649-4.295-0.166-0.403-0.714-2.030 0.155-4.234 0 0 1.344-0.43 4.401 1.64 1.276-0.355 2.645-0.532 4.005-0.539 1.359 0.006 2.729 0.184 4.008 0.539 3.054-2.070 4.395-1.64 4.395-1.64 0.871 2.204 0.323 3.831 0.157 4.234 1.026 1.12 1.647 2.548 1.647 4.295 0 6.145-3.743 7.498-7.306 7.895 0.574 0.497 1.085 1.47 1.085 2.963 0 2.141-0.019 3.864-0.019 4.391 0 0.426 0.288 0.925 1.099 0.768 6.354-2.118 10.933-8.113 10.933-15.18 0-8.837-7.164-16-16-16z"></path>
</symbol>
<symbol id="icon-linkedin" viewBox="0 0 32 32">
<path d="M29 0h-26c-1.65 0-3 1.35-3 3v26c0 1.65 1.35 3 3 3h26c1.65 0 3-1.35 3-3v-26c0-1.65-1.35-3-3-3zM12 26h-4v-14h4v14zM10 10c-1.106 0-2-0.894-2-2s0.894-2 2-2c1.106 0 2 0.894 2 2s-0.894 2-2 2zM26 26h-4v-8c0-1.106-0.894-2-2-2s-2 0.894-2 2v8h-4v-14h4v2.481c0.825-1.131 2.087-2.481 3.5-2.481 2.488 0 4.5 2.238 4.5 5v9z"></path>
</symbol>
</defs>
</svg>


